<?xml version="1.0" encoding="utf-8"?>
<!-- Generator: Adobe Illustrator 15.0.0, SVG Export Plug-In . SVG Version: 6.00 Build 0)  -->
<!DOCTYPE svg PUBLIC "-//W3C//DTD SVG 1.1//EN" "http://www.w3.org/Graphics/SVG/1.1/DTD/svg11.dtd">
<svg version="1.1" id="Layer_1" xmlns="http://www.w3.org/2000/svg" xmlns:xlink="http://www.w3.org/1999/xlink" x="0px" y="0px"
	 width="300px" height="247px" viewBox="0 0 300 247" enable-background="new 0 0 300 247" xml:space="preserve">
<g>
	<g>
		<g>
			<path fill-rule="evenodd" clip-rule="evenodd" fill="#231F20" d="M28.1,102l3.1,79.3c0.1,3.7-4.4,7.9-8.5,7.9
				c-4.1,0-9-4.1-8.9-7.9l3.1-79.4C17.2,94.5,27.8,94.5,28.1,102L28.1,102z M43.2,66.5l-3.4-42.3h-6.7l-0.7,40.2h-5.6V24.1H23h-3.8
				v40.2h-5.6L13,24.1H6.3L2.8,66.5C0.3,98.4,45.8,98.4,43.2,66.5z"/>
			<path fill-rule="evenodd" clip-rule="evenodd" fill="#231F20" d="M291.7,127.2l3.1,54.1c0.2,3.7-4.4,7.9-8.5,7.9
				s-9.1-4.1-8.9-7.9l3.1-54.2C280.9,119.7,291.2,119.7,291.7,127.2L291.7,127.2z M295.8,12.3c-12.2-0.6-21.1,7.2-22.4,22.9
				c-2.3,27.5-1.6,43.3,0.6,71.6c1.1,14.4,21.8,15,21.8,0V12.3z"/>
			<g>
				<path fill-rule="evenodd" clip-rule="evenodd" fill="#231F20" d="M155.4,1.3c54.9,0,99.4,44.5,99.4,99.4
					c0,54.9-44.5,99.4-99.4,99.4c-54.9,0-99.4-44.5-99.4-99.4C56,45.8,100.5,1.3,155.4,1.3z"/>
				<path fill-rule="evenodd" clip-rule="evenodd" fill="#FFFFFF" d="M155.4,21.8c43.6,0,78.9,35.3,78.9,78.9
					c0,43.6-35.3,78.9-78.9,78.9s-78.9-35.3-78.9-78.9C76.4,57.1,111.8,21.8,155.4,21.8z"/>
				<path fill-rule="evenodd" clip-rule="evenodd" fill="#231F20" d="M155.4,36.6c17.2,0,32.9,6.8,44.4,17.9
					c-10-6.4-21.9-10.2-34.6-10.2c-35.4,0-64.1,28.7-64.1,64.1c0,18.2,7.6,34.6,19.7,46.3c-17.7-11.4-29.5-31.3-29.5-54
					C91.2,65.3,119.9,36.6,155.4,36.6z"/>
			</g>
		</g>
		<path fill="#231F20" d="M3.9,246.4v-19.6h8.3c2.1,0,3.6,0.2,4.6,0.5s1.7,1,2.3,1.9c0.6,0.9,0.9,1.9,0.9,3.1c0,1.5-0.4,2.7-1.3,3.7
			c-0.9,1-2.2,1.6-3.9,1.8c0.9,0.5,1.6,1.1,2.1,1.6c0.6,0.6,1.3,1.7,2.3,3.2l2.4,3.8h-4.7l-2.9-4.3c-1-1.5-1.7-2.5-2.1-2.9
			c-0.4-0.4-0.8-0.7-1.2-0.8c-0.4-0.1-1.1-0.2-2-0.2H7.9v8.2H3.9L3.9,246.4z M7.9,235.1h2.9c1.9,0,3.1-0.1,3.6-0.2
			c0.5-0.2,0.8-0.4,1.1-0.8c0.3-0.4,0.4-0.9,0.4-1.5c0-0.7-0.2-1.2-0.5-1.6c-0.4-0.4-0.9-0.7-1.5-0.8c-0.3,0-1.3-0.1-2.9-0.1H7.9
			V235.1L7.9,235.1z M36.2,246.4v-19.6h14.6v3.3H40.2v4.4H50v3.3h-9.9v5.3h11v3.3H36.2L36.2,246.4z M66,240l3.9-0.4
			c0.2,1.3,0.7,2.2,1.4,2.9c0.7,0.6,1.7,0.9,2.9,0.9c1.3,0,2.2-0.3,2.9-0.8c0.6-0.5,1-1.2,1-1.9c0-0.5-0.1-0.9-0.4-1.2
			c-0.3-0.3-0.7-0.6-1.4-0.9c-0.5-0.2-1.5-0.4-3.2-0.9c-2.1-0.5-3.6-1.2-4.5-1.9c-1.2-1.1-1.8-2.4-1.8-3.9c0-1,0.3-1.9,0.8-2.8
			c0.6-0.9,1.4-1.5,2.5-2c1.1-0.5,2.4-0.7,3.9-0.7c2.5,0,4.3,0.5,5.6,1.6c1.2,1.1,1.9,2.5,2,4.3l-4,0.2c-0.2-1-0.5-1.7-1.1-2.2
			c-0.6-0.4-1.4-0.7-2.5-0.7c-1.2,0-2.1,0.2-2.7,0.7c-0.4,0.3-0.6,0.7-0.6,1.2c0,0.5,0.2,0.9,0.6,1.2c0.5,0.4,1.7,0.9,3.6,1.3
			c1.9,0.5,3.4,0.9,4.3,1.4c0.9,0.5,1.6,1.2,2.2,2c0.5,0.8,0.8,1.9,0.8,3.1c0,1.1-0.3,2.2-0.9,3.2c-0.6,1-1.5,1.7-2.7,2.2
			c-1.1,0.5-2.6,0.7-4.3,0.7c-2.5,0-4.4-0.6-5.7-1.7C67,243.9,66.3,242.2,66,240L66,240z M102.2,246.4v-16.3h-5.8v-3.3H112v3.3h-5.8
			v16.3H102.2L102.2,246.4z M142.7,246.4h-4.3l-1.7-4.5h-7.8l-1.6,4.5H123l7.6-19.6h4.2L142.7,246.4L142.7,246.4z M135.4,238.7
			l-2.7-7.3l-2.7,7.3H135.4L135.4,238.7z M157.3,226.8h4v10.6c0,1.7,0.1,2.8,0.1,3.3c0.2,0.8,0.6,1.4,1.2,1.9
			c0.6,0.5,1.5,0.7,2.6,0.7c1.1,0,2-0.2,2.5-0.7c0.6-0.5,0.9-1,1-1.7c0.1-0.7,0.2-1.8,0.2-3.3v-10.9h4v10.3c0,2.4-0.1,4-0.3,5
			c-0.2,1-0.6,1.8-1.2,2.5c-0.6,0.7-1.3,1.2-2.3,1.6c-1,0.4-2.2,0.6-3.8,0.6c-1.9,0-3.3-0.2-4.3-0.6c-1-0.4-1.7-1-2.3-1.7
			c-0.6-0.7-0.9-1.4-1.1-2.2c-0.3-1.1-0.4-2.8-0.4-5V226.8L157.3,226.8z M189.6,246.4v-19.6h8.3c2.1,0,3.6,0.2,4.6,0.5
			c1,0.4,1.7,1,2.3,1.9c0.6,0.9,0.9,1.9,0.9,3.1c0,1.5-0.4,2.7-1.3,3.7c-0.9,1-2.2,1.6-3.9,1.8c0.9,0.5,1.6,1.1,2.1,1.6
			c0.6,0.6,1.3,1.7,2.3,3.2l2.4,3.8h-4.7l-2.9-4.3c-1-1.5-1.7-2.5-2.1-2.9c-0.4-0.4-0.8-0.7-1.2-0.8c-0.4-0.1-1.1-0.2-2-0.2h-0.8
			v8.2H189.6L189.6,246.4z M193.6,235.1h2.9c1.9,0,3.1-0.1,3.6-0.2c0.5-0.2,0.8-0.4,1.1-0.8c0.3-0.4,0.4-0.9,0.4-1.5
			c0-0.7-0.2-1.2-0.5-1.6c-0.4-0.4-0.9-0.7-1.5-0.8c-0.3,0-1.3-0.1-2.9-0.1h-3.1V235.1L193.6,235.1z M239.6,246.4h-4.3l-1.7-4.5
			h-7.8l-1.6,4.5h-4.2l7.6-19.6h4.2L239.6,246.4L239.6,246.4z M232.3,238.7l-2.7-7.3l-2.7,7.3H232.3L232.3,238.7z M254.3,246.4
			v-19.6h3.9l8,13.1v-13.1h3.7v19.6h-4l-7.9-12.8v12.8H254.3L254.3,246.4z M291,246.4v-16.3h-5.8v-3.3h15.6v3.3h-5.8v16.3H291z"/>
	</g>
</g>
</svg>
